# xmcd
#
# Track frame offsets:
#	150
#	17552
#	43506
#	61370
#	81343
#	101295
#	120739
#	139447
#	158027
#	170339
#	187267
#	204268
#
# Disc length: 2896 seconds
#
# Revision: 0
# Processed by: cddbd v1.5.2PL0 Copyright (c) Steve Scherf et al.
# Submitted via: audiograbber 1.83.01
#
DISCID=9f0b4e0c
DTITLE=The Phenomenal Handclap Band - Form and Control
DYEAR=2012
DGENRE=Rock
TTITLE0=Following
TTITLE1=The Right One
TTITLE2=The Written Word
TTITLE3=The Unknown Faces At Father James Park
TTITLE4=Shake
TTITLE5=Form and Control
TTITLE6=Give
TTITLE7=Afterglow
TTITLE8=Winter Falls
TTITLE9=All Cliches
TTITLE10=Mirrors
TTITLE11=The Attempt
EXTD=
EXTT0=
EXTT1=
EXTT2=
EXTT3=
EXTT4=
EXTT5=
EXTT6=
EXTT7=
EXTT8=
EXTT9=
EXTT10=
EXTT11=
PLAYORDER=
